# xmcd CD database file
#
# Track frame offsets:
#	150
#	12163
#	21207
#	33307
#	43203
#	54976
#	65144
#	76113
#	88514
#	98202
#	107474
#	118701
#
# Disc length: 1775 seconds
#
# Revision: 0
# Processed by: cddbd v1.5.2PL0 Copyright (c) Steve Scherf et al.
# Submitted via: CDex 1.51
#
DISCID=8f06ed0c
DTITLE=Jerry Chesnut - Singing His Songs
DYEAR=2004
DGENRE=Country
TTITLE0=On The Backrow
TTITLE1=Gotta Lotta Hen House Ways
TTITLE2=Small Enough To Crawl
TTITLE3=Legend of the Highway
TTITLE4=Anything But Over You
TTITLE5=Lonely Alone
TTITLE6=Pretty Womanitis
TTITLE7=Tiny Fingers
TTITLE8=Bet Your Sweet Life
TTITLE9=What's Happened To Mankind
TTITLE10=Woman
TTITLE11=Love Coming Down
EXTD=YEAR: 2004
EXTT0=
EXTT1=
EXTT2=
EXTT3=
EXTT4=
EXTT5=
EXTT6=
EXTT7=
EXTT8=
EXTT9=
EXTT10=
EXTT11=
PLAYORDER=
